<?xml version="1.0" encoding="utf-8"?>
<!-- Generator: Adobe Illustrator 19.0.0, SVG Export Plug-In . SVG Version: 6.00 Build 0)  -->
<svg version="1.1" id="Layer_1" xmlns="http://www.w3.org/2000/svg" xmlns:xlink="http://www.w3.org/1999/xlink" x="0px" y="0px"
	 width="1400px" height="1400px" viewBox="0 0 1400 1400" enable-background="new 0 0 1400 1400" xml:space="preserve">
<rect id="XMLID_21_" fill="#FF6B43" width="1400" height="1400"/>
<path id="XMLID_33_" fill="#DF4916" d="M300.8,342.8C163.6,379.4,67.4,433.2,0,490.3V1400h72.2c32.8-159.4,111.8-348.7,300.6-400
	c342-92.9,294.1-486.2,656.6-552.2c214-39,319.8-151,370.6-236.3V0H813.2C718.7,121.1,554.9,275,300.8,342.8z"/>
<path id="XMLID_38_" fill="#FF6B43" d="M1077,293c-95.2,31.1-169.1,60.1-232.7,91.2c-64.5,31.6-119.1,66.2-166.8,105.6
	C580.9,569.9,510.4,671.7,428,810C348,944.2,212.2,956.1,68.4,968.6c-22.7,2-45.6,4-68.4,6.6v35.2c23.4-2.7,47.3-4.8,71.4-6.9
	c71.5-6.2,145.5-12.7,212.4-35.9C361,940.9,418,895.2,458,828c169.6-284.7,272.8-385.1,629.8-501.6c85.6-28,157.7-67.6,214.2-117.7
	c41-36.4,73.9-78.4,98-125.1V0h-4.2c-5,17.1-11.6,35.6-20.7,54.9C1323.3,165.2,1223,245.4,1077,293z"/>
<path id="XMLID_28_" fill="#9B1C04" d="M1400,668.7c0,0-242.1-171.7-370.6,87.2c-128.5,258.9-97.1,414.9-414.4,414.9
	S270.8,1400,270.8,1400H1400V668.7z"/>
<path id="XMLID_37_" fill="#9B1C04" d="M0,0v405C155.9,176.7,155.2,25.3,462.2,72.4C622.4,96.9,716.7,50.9,770.7,0H0z"/>
<g id="XMLID_10_">
	<g id="XMLID_2_">
		<g id="XMLID_66_">
			<path id="XMLID_67_" fill="#545454" d="M586,394.2c0,0-58.5,50.8-66,129.3c-7.5,78.6-23.4,130.3-71.9,152.8
				c-48.5,22.6,17.6,69.3,17.6,69.3s-20.9,168.8,22.6,192.2c43.5,23.4,152.1,15,152.1,15s57.7,41.8,76.1,190.6
				c0,0-213.9,35.9-225.6,256.6h855.8c0,0-18.2-263-153.6-288.1c-135.4-25.1-207.5-7.5-207.5-7.5s-91.9-118.8-107-234.1
				c0,0,88.4-299.2,9.9-412.9S586,394.2,586,394.2z"/>
		</g>
	</g>
	<path id="XMLID_46_" fill="#3E3E3E" d="M693,1350c28,31,241-7,354-44s16-194,10.6-207.6c-47.5,0-72.1,6-72.1,6
		s-91.9-118.8-107-234.1c0,0,3.6-12,8.6-32.2c-23.9-17.4-46.1-20.4-63.1,2c-70,92-183.7,112.9-183.7,112.9s57.7,41.8,76.1,190.6
		c0,0-87.9,14.8-154.1,83.5C600,1265,672.5,1327.3,693,1350z"/>
	<g id="XMLID_6_">
		<path id="XMLID_19_" d="M797.3,694.2c0,0,8-31.2,48.7-28.8c40.8,2.4,34.4,84.7,10.4,112.7s-59.1,44.8-59.1,44.8
			s21.2,72.5,58.7,139.9c30.2,54.3,95.5,78.7,153.8,57.1c89.5-33.1,222.7-103.8,294.3-245c100.3-197.9-51.3-397.7-223.1-541.6
			c-44.1-36.9,5-132.7-101.3-155.1C684.3,16.1,496,167.6,480,266.7c-16,99.1,68.7,174.2,68.7,174.2s41-40.5,89-17
			c47.9,23.4,34.1,177.9,58.6,231.2c24.5,53.3,86.3,68.2,86.3,68.2L797.3,694.2z"/>
	</g>
	<g id="XMLID_9_">
		<g id="XMLID_69_">
			<path id="XMLID_70_" fill="#FFFFFF" d="M744.8,1328.1c-50.1,3.3-28.4-184.7-28.4-184.7s-213.9,35.9-225.6,256.6h855.8
				c0,0-18.2-263-153.6-288.1c-64.4-11.9-114.5-14.2-149.3-13.3l-58.2,5.8C985.5,1104.4,794.9,1324.8,744.8,1328.1z"/>
		</g>
	</g>
	<g id="XMLID_3_">
		<circle id="XMLID_11_" fill="#DF4916" cx="837.3" cy="787.1" r="26.7"/>
	</g>
	<g id="XMLID_8_">
		<path id="XMLID_17_" d="M570.8,649.2c-31.8,0-48.2-22.6-48.4-22.9l6.8-4.8l-3.4,2.4l3.4-2.4c1,1.4,25.5,34.6,75,10.9l3.6,7.5
			C593.8,646.6,581.5,649.2,570.8,649.2z"/>
	</g>
	<g id="XMLID_7_">
		<path id="XMLID_15_" d="M626.2,584.1c-0.3-0.3-26.2-32.8-51.5-35.3c-24.9-2.5-40.1,11-40.7,11.6l-11.3-12.3
			c0.8-0.8,21.1-19.3,53.7-16c32.4,3.2,61.7,40,63,41.6L626.2,584.1z"/>
	</g>
</g>
</svg>
